<svg width="925" height="499" viewBox="0 0 925 499" fill="none" xmlns="http://www.w3.org/2000/svg">
<path d="M871.947 12.3795C862.558 19.1277 844.954 32.0373 832.631 41.4261C820.602 50.5215 794.196 69.0057 773.951 82.5021C707.35 126.806 678.01 149.984 687.692 149.984C693.56 149.984 829.111 59.6169 845.834 44.6535C856.397 34.9713 881.042 19.1277 878.402 23.5287C874.881 29.1033 810.626 75.7539 774.832 98.9325C755.761 111.255 728.768 128.859 714.685 137.955C700.601 147.05 688.865 154.972 688.865 155.852C688.865 158.786 707.35 167.588 713.804 167.588C723.78 167.588 774.538 141.476 772.191 137.661C771.017 135.608 771.604 135.314 773.365 136.488C775.125 137.661 780.7 136.488 785.687 133.847C795.663 128.566 797.717 124.752 788.035 129.446C781.873 132.38 781.58 132.38 786.568 128.273C789.795 125.925 794.196 124.752 796.837 125.632C799.184 126.806 800.651 126.219 799.771 124.752C798.597 123.285 800.944 121.818 804.758 121.818C811.213 121.231 810.92 122.698 796.837 145.29C741.384 234.777 654.244 320.156 566.518 372.088C456.786 436.636 342.067 469.203 220.893 470.377C179.23 470.67 170.428 469.79 143.141 463.042C99.4249 452.48 76.2463 443.091 38.3977 421.379C4.6567 401.721 -1.5047 399.374 1.1359 406.416C2.8963 411.11 43.0921 439.863 65.0971 452.186C100.305 471.844 152.53 488.274 197.421 493.849C265.783 502.064 316.834 499.424 392.825 484.46C459.72 470.964 522.214 449.252 584.415 417.565C614.929 402.015 677.129 363.286 677.129 359.765C677.129 358.592 675.956 358.885 674.195 359.765C669.501 362.699 670.968 359.472 676.249 355.071C679.477 352.137 680.357 352.137 678.89 354.484C675.662 360.059 681.53 359.178 686.225 353.31C689.746 348.909 689.746 348.616 685.931 350.963C683.584 352.137 684.758 349.79 688.572 345.682C692.68 341.281 696.494 337.76 697.081 337.76C697.961 337.76 696.2 340.401 693.266 343.628C690.332 346.856 689.159 349.496 690.919 349.496C694.44 349.496 704.122 339.227 702.068 337.467C701.482 336.587 707.056 330.132 714.685 322.797L728.474 309.887L715.271 323.677C708.23 331.599 703.829 337.76 705.883 337.76C712.044 337.76 786.568 260.889 808.866 231.256C820.895 215.706 830.871 203.09 831.458 203.383C831.751 203.97 830.871 210.131 829.697 217.466C826.177 235.07 826.177 265.29 829.404 274.092C831.458 279.08 835.565 282.308 841.433 283.481C846.421 284.655 851.409 287.295 852.289 289.643C854.93 296.978 864.612 294.337 866.372 285.535C871.067 263.823 874.588 250.327 878.402 242.112C886.324 223.921 893.365 189.3 898.646 142.649C898.94 139.422 900.7 132.967 902.754 128.566C904.514 124.165 907.155 113.603 908.622 105.094C910.089 96.5853 914.49 78.3945 918.891 64.0179C925.933 40.8393 926.226 37.3185 922.412 28.8099C917.717 18.2475 899.82 0.350128 893.659 0.350128C891.311 0.350128 881.629 5.92475 871.947 12.3795ZM823.829 98.3457C823.829 99.2259 822.656 100.693 820.895 101.573C819.428 102.453 817.961 101.867 817.961 100.4C817.961 98.6391 819.428 97.1721 820.895 97.1721C822.656 97.1721 823.829 97.7589 823.829 98.3457ZM669.794 316.049C654.831 329.545 612.581 360.645 597.911 368.567C588.816 373.262 599.672 364.753 621.383 350.083C633.413 341.574 652.777 326.904 663.926 317.222C689.746 295.511 693.266 294.63 669.794 316.049ZM665.393 365.633C663.34 367.98 660.406 370.034 658.645 370.034C656.885 370.034 658.058 367.98 661.286 365.633C668.621 360.059 670.088 360.059 665.393 365.633Z" fill="white"/>
</svg>
